<svg id="liz-map" class="map" version="1.1" xmlns="http://www.w3.org/2000/svg" xmlns:xlink="http://www.w3.org/1999/xlink" x="0px" y="0px" enable-background="new 0 0 1247.244 907.087" height="1080px" width="1920px">
    <g id="lul-elizabeth">
        <path id="lul-elizabeth_CUH-WOO" fill="none" stroke="#634EA0" stroke-width="2.3443" stroke-linejoin="round" stroke-miterlimit="3.994" d=" M924.9,500.2c12.7,12.7,40.7,40.7,41.1,41.1l0.7,0.7c2.2,2.2,2.8,2.8,2.8,2.8c1.1,1.1,2,3.3,2,4.9v33.8l0,1.6c0,1,0-32.2,0,0"></path>
        <path id="lul-elizabeth_CWF-CUH" fill="none" stroke="#634EA0" stroke-width="2.3443" stroke-linejoin="round" stroke-miterlimit="3.994" d=" M805.6,494.8h96.3h0.9h10.3h3.6c1.6,0,3.8,0.9,4.9,2c0.1,0.1,0.5,0.5,3,3"></path>
        <path id="lul-elizabeth_WCL-CWF" fill="none" stroke="#634EA0" stroke-width="2.3443" stroke-linejoin="round" stroke-miterlimit="3.994" d=" M712.4,409.3h25.7c1.6,0,3.8,0.9,4.9,2l7.4,7.4l0.5,0.5l18.4,18.4l0.7,0.7l5.3,5.3c1.1,1.1,2,3.3,2,4.9V467l0,0.9v8.7 c0,1.6,0.9,3.8,2,4.9l11.3,11.3c1.1,1.1,3.3,2,4.9,2h9.5"></path>
        <path id="lul-elizabeth_LST-WCL" fill="none" stroke="#634EA0" stroke-width="2.3443" stroke-linejoin="round" stroke-miterlimit="3.994" d=" M646.1,400.4h8.3c1.6,0,3.8,0.9,4.9,2l1.2,1.2l2.2,2.2l1.3,1.3c1.1,1.1,3.3,2,4.9,2h7.5l35.2,0.1"></path>
        <line id="lul-elizabeth_FAR-LST" fill="none" stroke="#634EA0" stroke-width="2.3443" stroke-linejoin="round" stroke-miterlimit="3.994" x1="593.5" y1="400.4" x2="646.1" y2="400.4"></line>
        <path id="lul-elizabeth_TCR-FAR" fill="none" stroke="#634EA0" stroke-width="2.3443" stroke-linejoin="round" stroke-miterlimit="3.994" d=" M537.1,426.3l8.8,0l6,0c1.6,0,3.8-0.9,4.9-2l16.9-16.9l1.6-1.6l3.4-3.4c1.1-1.1,3.3-2,4.9-2h9.3"></path>
        <path id="lul-elizabeth_PAD-TCR" fill="none" stroke="#634EA0" stroke-width="2.3443" stroke-linejoin="round" stroke-miterlimit="3.994" d=" M405.4,401.9h15.2c1.6,0,3.8,0.9,4.9,2l20.3,20.3c1.1,1.1,3.3,2,4.9,2h86.1"></path>
        <line id="lul-elizabeth_WOO-ABW" fill="none" stroke="#634EA0" stroke-width="2.3443" stroke-linejoin="round" stroke-miterlimit="3.994" x1="971.6" y1="597.6" x2="971.6" y2="584.2"></line>
        <g id="lul-elizabeth_white_line">
            <path fill="none" stroke="#FFFFFF" stroke-width="0.805" stroke-linejoin="round" stroke-miterlimit="3.994" d="M805.6,494.8 h95.3h2.3h13.5c1.6,0,3.8,0.9,4.9,2c0.5,0.5,44.1,44.1,44.8,44.8l0.9,0.9c2.2,2.2,2.2,2.2,2.2,2.2c1.1,1.1,2,3.3,2,4.9v29.1 l0,3.6c0,2.8,0-2.6,0,15.4"></path>
            <path fill="none" stroke="#FFFFFF" stroke-width="0.805" stroke-linejoin="round" stroke-miterlimit="3.994" d="M712.4,409.3 h25.7c1.6,0,3.8,0.9,4.9,2l7.4,7.4l0.9,0.9l18.7,18.7l1.8,1.8l3.5,3.5c1.1,1.1,2,3.3,2,4.9v23.6l0,1.4v3c0,1.6,0.9,3.8,2,4.9 l11.3,11.3c1.1,1.1,3.3,2,4.9,2h9.5"></path>
            <path fill="none" stroke="#FFFFFF" stroke-width="0.805" stroke-linejoin="round" stroke-miterlimit="3.994" d="M646.1,400.4 h8.3c1.6,0,3.8,0.9,4.9,2l1.3,1.3l2.1,2.1l1.4,1.4c1.1,1.1,3.3,2,4.9,2l42.7,0"></path>
            <line fill="none" stroke="#FFFFFF" stroke-width="0.805" stroke-linejoin="round" stroke-miterlimit="3.994" x1="592.8" y1="400.4" x2="645" y2="400.4"></line>
            <path fill="none" stroke="#FFFFFF" stroke-width="0.805" stroke-linejoin="round" stroke-miterlimit="3.994" d="M537.1,426.3 l14.8,0c1.6,0,3.8-0.9,4.9-2l16-16l2.5-2.5l3.4-3.4c1.1-1.1,3.3-2,4.9-2h9.3"></path>
            <path fill="none" stroke="#FFFFFF" stroke-width="0.805" stroke-linejoin="round" stroke-miterlimit="3.994" d="M406.2,401.9 h14.5c1.6,0,3.8,0.9,4.9,2l20.3,20.3c1.1,1.1,3.3,2,4.9,2h49.7h36.3"></path>
        </g>
        <g id="PAD-label">
            <polygon id="940GZZLUPAC_940GZZLUPAH_nr" fill="#EE3124" points="402.7,413.5 400.9,412.7 403.4,412.7 403.4,412.2 400.9,412.2 402.1,411.6 403.4,411.6 403.4,411.1 402.1,411.1 400.6,410.4 399.4,410.4 401,411.1 398.5,411.1 398.5,411.6 401,411.6 399.7,412.2 398.5,412.2 398.5,412.7 399.8,412.7 401.5,413.5 "></polygon>
            <text id="940GZZLUPAC_940GZZLUPAH_label" transform="matrix(1 0 0 1 393.9134 409.5982)" fill="#1C3F94" class="blue-fill">Paddington</text>
        </g>
        <g id="TCR-label">
            <text id="940GZZLUTCR_label" transform="matrix(1 0 0 1 539.1312 413.7653)">
                <tspan x="0" y="0" fill="#1C3F94" class="blue-fill">Tottenham</tspan>
                <tspan x="0" y="4.5" fill="#1C3F94" class="blue-fill">Court </tspan>
                <tspan x="0" y="9.1" fill="#1C3F94" class="blue-fill">Road</tspan>
            </text>
        </g>
        <g id="FAR_label">
            <text id="940GZZLUFCN_label" transform="matrix(1 0 0 1 603.2601 390.5073)" fill="#1C3F94" class="blue-fill">Farringdon</text>
            <polygon id="940GZZLUFCN_nr" fill="#EE3124" points="607.6,386.8 605.9,386.1 608.4,386.1 608.4,385.5 605.8,385.5 607.1,384.9 608.4,384.9 608.4,384.4 607.1,384.4 605.6,383.7 604.4,383.7 606,384.4 603.5,384.4 603.5,384.9 606,384.9 604.7,385.5 603.5,385.5 603.5,386.1 604.8,386.1 606.5,386.8 "></polygon>
        </g>
        <text id="WCL-label" transform="matrix(1 0 0 1 725.1417 426.7307)" fill="#1C3F94" class="blue-fill">Whitechapel</text>
        <g id="LST-label">
            <text id="940GZZLULVT_label" transform="matrix(1 0 0 1 645.5961 431.1397)">
                <tspan x="0" y="0" fill="#1C3F94" class="blue-fill">Liverpool</tspan>
                <tspan x="0" y="4.5" fill="#1C3F94" class="blue-fill">Street</tspan>
            </text>
            <polygon id="940GZZLULVT_nr" fill="#EE3124" points="663.5,435.6 661.8,434.9 664.2,434.9 664.2,434.3 661.7,434.3 663,433.7 664.2,433.7 664.2,433.2 663,433.2 661.4,432.5 660.2,432.5 661.9,433.2 659.3,433.2 659.3,433.7 661.9,433.7 660.5,434.3 659.3,434.3 659.3,434.9 660.6,434.9 662.3,435.6 "></polygon>
        </g>
        <g id="CWF-label">
            <g id="940GZZLUCYF_label"> <text id="940GZZLUCYF_label" transform="matrix(1 0 0 1 759.4282 507.2441)" fill="#1C3F94" class="blue-fill">Canary Wharf</text> </g>
            <path id="940GZZLUCYF_river" fill="#1C3F94" d="M753.1,506.7l-0.8-1.1h0.8l0.5-0.6c0,0,0,0,0.1-0.1c0,0,0.1,0,0.1,0h0.6 v-0.2h0.3l0.2-0.4h0.2l-0.1,0.2l0.1,0.2h0.8v0.2h1.3c0,0,0.1,0,0.2,0.1c0.1,0.1,0.1,0.1,0.1,0.1l0.2,0.5h0.5l0.4,1.1 c0,0-0.5-0.3-1.3-0.3c-0.6,0-0.9,0.3-1.6,0.3c-0.4,0-1-0.2-1.5-0.2C753.8,506.5,753.3,506.6,753.1,506.7z M753.4,507.2 c0.3-0.1,0.6-0.2,1.3,0c0.3,0.1,0.6,0.1,0.9,0.1c0.4,0,0.6-0.1,0.9-0.1c0.3-0.1,0.6-0.1,0.8-0.1c0.4,0,0.7,0.1,0.9,0.2l-0.1-0.3 c-0.3-0.1-0.9-0.2-1.6,0c-0.3,0.1-0.6,0.1-0.9,0.1c-0.3,0-0.5,0-0.8-0.1c-0.9-0.2-1.2-0.1-1.6,0.1L753.4,507.2z M753.4,505.6 h0.8v-0.5h-0.3c0,0-0.1,0-0.1,0.1c0,0-0.1,0.1-0.1,0.1L753.4,505.6z M755.5,505.6h0.8v-0.5h-0.8V505.6z M757.2,505.2 C757.2,505.2,757.2,505.2,757.2,505.2c-0.1-0.1-0.1-0.1-0.1-0.1h-0.6v0.5h0.9L757.2,505.2z M754.4,505.6h0.8l0-0.5h-0.8V505.6z" class="blue-fill"></path>
        </g>
        <g id="CUH-label">
            <text id="940GZZDLCUH_label" transform="matrix(1 0 0 1 939.9044 482.8331)" fill="#1C3F94" class="blue-fill">CUHtom House for ExCeL</text>
        </g>
        <g id="WOO-label">
            <text transform="matrix(1 0 0 1 976.2496 586.5044)" fill="#1C3F94" class="blue-fill">Woolwich</text>
        </g>
        <g id="ABW-label">
            <text transform="matrix(1 0 0 1 976.2496 599.0184)" fill="#1C3F94" class="blue-fill">Abbey Wood</text>
            <polygon id="ABW_nr" fill="#EE3124" points="980.6,603.3 978.8,602.5 981.3,602.5 981.3,602 978.8,602 980,601.4 981.3,601.4 981.3,600.9 980,600.9 978.5,600.2 977.3,600.2 978.9,600.9 976.4,600.9 976.4,601.4 978.9,601.4 977.6,602 976.4,602 976.4,602.5 977.7,602.5 979.4,603.3 "></polygon>
        </g>
        <!--Dots-->
        <g id="IC_PAD">
            <path id="lul-circle_lul-district_940gzzlupac_elizabeth_910gpadtll"
                d="M393.2,392.4l8.6,8.6 c-0.3,1.1,0,2.4,0.9,3.3c1.3,1.3,3.5,1.3,4.8,0c1.3-1.3,1.3-3.5,0-4.8c-0.9-0.9-2.2-1.2-3.3-0.9l-8.6-8.6c0.3-1.1,0-2.4-0.9-3.3 c-1.3-1.3-3.5-1.3-4.8,0c-1.3,1.3-1.3,3.5,0,4.8C390.8,392.4,392.1,392.7,393.2,392.4z"
               ></path>
            <path id="lul-circle_lul-district_lul_940gzzlupac_elizabeth_910gpadtll" fill="#FFFFFF"
                d="M390.7,390.7 c-0.9-0.9-0.9-2.3,0-3.2c0.9-0.9,2.3-0.9,3.2,0c0.8,0.8,0.9,1.9,0.3,2.8l9.6,9.6c0.9-0.5,2-0.4,2.8,0.3c0.9,0.9,0.9,2.3,0,3.2 c-0.9,0.9-2.3,0.9-3.2,0c-0.8-0.8-0.9-1.9-0.3-2.8l-9.6-9.6C392.6,391.5,391.5,391.4,390.7,390.7z"
                class="white-fill"></path>
            <g id="elizabeth_910gpadtll">
                <g>
                    <path fill="#1C3F94"
                        d="M405.1,398.4c1.9,0,3.4,1.5,3.4,3.4c0,1.9-1.5,3.4-3.4,3.4c-1.9,0-3.4-1.5-3.4-3.4 C401.7,399.9,403.2,398.4,405.1,398.4z"
                        class="blue-fill"></path>
                </g>
                <g>
                    <g>
                        <path fill="#FFFFFF"
                            d="M403.9,402.8c0.2,0.5,0.7,0.9,1.2,0.9c0.7,0,1.3-0.6,1.3-1.3c0-0.4-0.2-0.7-0.4-1l0.1-0.6 c0.5,0.3,0.8,0.9,0.8,1.5c0,1-0.8,1.8-1.8,1.8c-0.6,0-1.2-0.3-1.5-0.8L403.9,402.8z"
                            class="white-fill"></path>
                        <path fill="#FFFFFF"
                            d="M405.2,399.5c0,0.3,0.2,0.5,0.5,0.5c0.3,0,0.5-0.2,0.5-0.5c0-0.3-0.2-0.5-0.5-0.5 C405.4,399,405.2,399.3,405.2,399.5z"
                            class="white-fill"></path>
                        <path fill="#FFFFFF"
                            d="M405.4,400.4l-0.1,0.4h-1.1c0,0-0.2,0-0.2,0.2c0,0.2,0.2,0.2,0.2,0.2h1l0,0.3h-1.4c0,0-0.1,0-0.1,0.1 c0,0-0.1,0.1-0.1,0.1l-0.8,1.6c0,0-0.1,0.2,0.1,0.3c0.2,0.1,0.4-0.1,0.4-0.1l0.6-1.2c0,0,0.1-0.1,0.1-0.1c0.1,0,0.1,0,0.1,0 l1.3,0c0,0,0.1,0,0.2-0.1c0.1-0.1,0.1-0.2,0.1-0.2l0.2-1.4c0,0,0-0.3-0.3-0.3C405.5,400.2,405.4,400.4,405.4,400.4z"
                            class="white-fill"></path>
                    </g>
                </g>
            </g>
            <g id="lul-bakerloo_lul-circle_lul-district_940gzzlupac_elizabeth_910gpadton">
                <g id="lul-bakerloo_lul-circle_lul-district_940gzzlupac_lul-hammersmith-city_940gzzlupah"
                   >
                    <path id="lul-bakerloo_lul-circle_lul-district_lul-hammersmith_940gzzlupac"
                        d="M394.8,386.7 c-0.9-0.9-2.2-1.2-3.3-0.9l-4.7-4.7c0.3-1.1,0-2.4-0.9-3.3c-0.9-0.9-2.2-1.2-3.3-0.9l-2.2-2.2c0.3-1.1,0-2.4-0.9-3.3 c-1.3-1.3-3.5-1.3-4.8,0c-1.3,1.3-1.3,3.5,0,4.8c0.9,0.9,2.2,1.2,3.3,0.9l2.2,2.2c-0.3,1.1,0,2.4,0.9,3.3 c0.9,0.9,2.2,1.2,3.3,0.9l4.7,4.7c-0.3,1.1,0,2.4,0.9,3.3c1.3,1.3,3.5,1.3,4.8,0C396.1,390.2,396.1,388,394.8,386.7z"
                       ></path>
                    <path id="lul-circle_lul-district_940gzzlupac"
                        d="M394.8,386.7c1.3,1.3,1.3,3.5,0,4.8c-1.3,1.3-3.5,1.3-4.8,0 c-1.3-1.3-1.3-3.5,0-4.8C391.3,385.3,393.4,385.3,394.8,386.7z"
                       ></path>
                    <g
                        id="lul-circle_lul-district_940gpadtll_elizabeth_910gpadton_00000137092223816769433210000008789814037826816133_">
                        <rect x="377.1" y="388.7" fill="#FFFFFF" width="13.9" height="1.1" class="white-fill"></rect>
                    </g>
                    <rect x="395.2" y="387.8" transform="matrix(0.707 -0.7072 0.7072 0.707 -161.5967 394.8654)"
                        fill="#FFFFFF" width="1.1" height="9.3" class="white-fill"></rect>
                    <path id="lul-circle_940gzzlupah_lul-hammersmith_940gzzlupah"
                        d="M385.9,377.8c1.3,1.3,1.3,3.5,0,4.8 c-1.3,1.3-3.5,1.3-4.8,0c-1.3-1.3-1.3-3.5,0-4.8C382.4,376.4,384.5,376.4,385.9,377.8z"
                       ></path>
                    <path id="lul-bakerloo_lul-circle_lul-district_940gzzlupac_lul-hammersmith-city_940gzzlupah"
                        fill="#FFFFFF"
                        d=" M394,390.7c-0.9,0.9-2.3,0.9-3.2,0c-0.8-0.8-0.9-1.9-0.3-2.8l-5.8-5.8c-0.9,0.5-2,0.4-2.8-0.3c-0.8-0.8-0.9-1.9-0.4-2.8 l-3.3-3.3c-0.9,0.5-2,0.4-2.8-0.3c-0.9-0.9-0.9-2.3,0-3.2c0.9-0.9,2.3-0.9,3.2,0c0.7,0.8,0.9,1.9,0.3,2.8l3.3,3.3 c0.9-0.5,2-0.4,2.8,0.3c0.8,0.8,0.9,1.9,0.3,2.8l5.8,5.8c0.9-0.5,2-0.4,2.8,0.4C394.9,388.4,394.9,389.8,394,390.7z"
                        class="white-fill"></path>
                </g>
            </g>
            <g id="lul-circle_lul-hammersmith-city_940gzzlupah">
                <g>
                    <path fill="#1C3F94"
                        d="M383.5,376.8c1.9,0,3.4,1.5,3.4,3.4c0,1.9-1.5,3.4-3.4,3.4c-1.9,0-3.4-1.5-3.4-3.4 C380.1,378.3,381.6,376.8,383.5,376.8z"
                        class="blue-fill"></path>
                    <path fill="#FFFFFF"
                        d="M383.5,383.2c-1.7,0-3.1-1.4-3.1-3.1c0-1.7,1.4-3.1,3.1-3.1c1.7,0,3.1,1.4,3.1,3.1 C386.5,381.9,385.2,383.2,383.5,383.2L383.5,383.2z"
                        class="white-fill"></path>
                </g>
                <g>
                    <g>
                        <path fill="#1C3F94"
                            d="M382.3,381.2c0.2,0.5,0.7,0.9,1.2,0.9c0.7,0,1.3-0.6,1.3-1.3c0-0.4-0.2-0.7-0.4-1l0.1-0.6 c0.5,0.3,0.8,0.9,0.8,1.5c0,1-0.8,1.8-1.8,1.8c-0.6,0-1.2-0.3-1.5-0.9L382.3,381.2z"
                            class="blue-fill"></path>
                        <path fill="#1C3F94"
                            d="M383.5,377.9c0,0.3,0.2,0.5,0.5,0.5c0.3,0,0.5-0.2,0.5-0.5c0-0.3-0.2-0.5-0.5-0.5 C383.8,377.4,383.5,377.6,383.5,377.9z"
                            class="blue-fill"></path>
                        <path fill="#1C3F94"
                            d="M383.8,378.8l-0.1,0.4h-1.1c0,0-0.2,0-0.2,0.2c0,0.2,0.2,0.2,0.2,0.2h1l0,0.3h-1.4c0,0-0.1,0-0.1,0.1 c0,0-0.1,0.1-0.1,0.1l-0.8,1.6c0,0-0.1,0.2,0.1,0.3c0.2,0.1,0.4-0.1,0.4-0.1l0.6-1.2c0,0,0.1-0.1,0.1-0.1c0.1,0,0.1,0,0.1,0 l1.3,0c0,0,0.1,0,0.2-0.1c0.1-0.1,0.1-0.2,0.1-0.2l0.2-1.4c0,0,0-0.3-0.3-0.3C383.9,378.6,383.8,378.8,383.8,378.8z"
                            class="blue-fill"></path>
                    </g>
                </g>
            </g>
            <path id="lul-circle_940gzzlupah_lul-hammersmith_940gzzlupah_00000173882597643052908570000013858054378120818877_" d=" M379.5,371.4c1.3,1.3,1.3,3.5,0,4.8c-1.3,1.3-3.5,1.3-4.8,0c-1.3-1.3-1.3-3.5,0-4.8C376,370.1,378.2,370.1,379.5,371.4z"></path>
            <g id="lul-bakerloo_940gzzlupah">
                <g>
                    <path fill="#1C3F94"
                        d="M377.1,370.4c1.9,0,3.4,1.5,3.4,3.4c0,1.9-1.5,3.4-3.4,3.4c-1.9,0-3.4-1.5-3.4-3.4 C373.7,371.9,375.2,370.4,377.1,370.4z"
                        class="blue-fill"></path>
                    <path fill="#FFFFFF"
                        d="M377.1,376.9c-1.7,0-3.1-1.4-3.1-3.1c0-1.7,1.4-3.1,3.1-3.1c1.7,0,3.1,1.4,3.1,3.1 C380.2,375.5,378.8,376.9,377.1,376.9L377.1,376.9z"
                        class="white-fill"></path>
                </g>
                <g>
                    <g>
                        <path fill="#1C3F94"
                            d="M375.9,374.8c0.2,0.5,0.7,0.9,1.2,0.9c0.7,0,1.3-0.6,1.3-1.3c0-0.4-0.2-0.7-0.4-1l0.1-0.6 c0.5,0.3,0.8,0.9,0.8,1.5c0,1-0.8,1.8-1.8,1.8c-0.6,0-1.2-0.3-1.5-0.9L375.9,374.8z"
                            class="blue-fill"></path>
                        <path fill="#1C3F94"
                            d="M377.1,371.5c0,0.3,0.2,0.5,0.5,0.5c0.3,0,0.5-0.2,0.5-0.5c0-0.3-0.2-0.5-0.5-0.5 C377.4,371,377.1,371.3,377.1,371.5z"
                            class="blue-fill"></path>
                        <path fill="#1C3F94"
                            d="M377.4,372.4l-0.1,0.4h-1.1c0,0-0.2,0-0.2,0.2c0,0.2,0.2,0.2,0.2,0.2h1l0,0.3h-1.4c0,0-0.1,0-0.1,0.1 c0,0-0.1,0.1-0.1,0.1l-0.8,1.6c0,0-0.1,0.2,0.1,0.3c0.2,0.1,0.4-0.1,0.4-0.1l0.6-1.2c0,0,0.1-0.1,0.1-0.1c0.1,0,0.1,0,0.1,0 l1.3,0c0,0,0.1,0,0.2-0.1c0.1-0.1,0.1-0.2,0.1-0.2l0.2-1.4c0,0,0-0.3-0.3-0.3C377.5,372.2,377.4,372.4,377.4,372.4z"
                            class="blue-fill"></path>
                    </g>
                </g>
            </g>
            <path id="elizabeth_910gpadton_00000118381701180430434990000008390151120303529406_"
                d="M378.8,386.8 c1.3,1.3,1.3,3.5,0,4.8c-1.3,1.3-3.5,1.3-4.8,0c-1.3-1.3-1.3-3.5,0-4.8C375.3,385.4,377.5,385.4,378.8,386.8z">
            </path>
            <g id="elizabeth_910gpadton">
                <g>
                    <path fill="#1C3F94"
                        d="M376.4,385.8c1.9,0,3.4,1.5,3.4,3.4c0,1.9-1.5,3.4-3.4,3.4c-1.9,0-3.4-1.5-3.4-3.4 C373,387.3,374.5,385.8,376.4,385.8z"
                        class="blue-fill"></path>
                    <path fill="#FFFFFF"
                        d="M376.4,392.2c-1.7,0-3.1-1.4-3.1-3.1c0-1.7,1.4-3.1,3.1-3.1c1.7,0,3.1,1.4,3.1,3.1 C379.5,390.9,378.1,392.2,376.4,392.2L376.4,392.2z"
                        class="white-fill"></path>
                </g>
                <g>
                    <g>
                        <path fill="#1C3F94"
                            d="M375.2,390.2c0.2,0.5,0.7,0.9,1.2,0.9c0.7,0,1.3-0.6,1.3-1.3c0-0.4-0.2-0.7-0.4-1l0.1-0.6 c0.5,0.3,0.8,0.9,0.8,1.5c0,1-0.8,1.8-1.8,1.8c-0.6,0-1.2-0.3-1.5-0.9L375.2,390.2z"
                            class="blue-fill"></path>
                        <path fill="#1C3F94"
                            d="M376.5,386.9c0,0.3,0.2,0.5,0.5,0.5c0.3,0,0.5-0.2,0.5-0.5c0-0.3-0.2-0.5-0.5-0.5 C376.7,386.4,376.5,386.6,376.5,386.9z"
                            class="blue-fill"></path>
                        <path fill="#1C3F94"
                            d="M376.7,387.8l-0.1,0.4h-1.1c0,0-0.2,0-0.2,0.2c0,0.2,0.2,0.2,0.2,0.2h1l0,0.3h-1.4c0,0-0.1,0-0.1,0.1 c0,0-0.1,0.1-0.1,0.1l-0.8,1.6c0,0-0.1,0.2,0.1,0.3c0.2,0.1,0.4-0.1,0.4-0.1l0.6-1.2c0,0,0.1-0.1,0.1-0.1c0.1,0,0.1,0,0.1,0 l1.3,0c0,0,0.1,0,0.2-0.1c0.1-0.1,0.1-0.2,0.1-0.2l0.2-1.4c0,0,0-0.3-0.3-0.3C376.8,387.6,376.7,387.8,376.7,387.8z"
                            class="blue-fill"></path>
                    </g>
                </g>
            </g>
            <g id="lul-circle_lul-district_940gpadtll_elizabeth_910gpadton">
                <rect x="377.3" y="387.5" width="13.5" height="3.4"></rect>
            </g>
        </g>
        <g id="IC_TCR">
            <g id="lul-central_lul-northern_940gtotctrd_elizabeth_910gpadtll">
                <rect x="529.2" y="428" transform="matrix(0.7072 -0.707 0.707 0.7072 -147.5685 503.1928)" width="8.9"
                    height="3.4"></rect>
                <rect x="529" y="429.2" transform="matrix(0.707 -0.7072 0.7072 0.707 -147.5774 503.3413)" fill="#FFFFFF"
                    width="9.3" height="1.1" class="white-fill"></rect>
            </g>
            <g id="lul-northern_940gzzlutcr_elizabeth_910gtotctrd">
                <g>
                    <path fill="#1C3F94"
                        d="M536.8,423.3c1.9,0,3.4,1.5,3.4,3.4c0,1.9-1.5,3.4-3.4,3.4c-1.9,0-3.4-1.5-3.4-3.4 C533.4,424.8,534.9,423.3,536.8,423.3z"
                        class="blue-fill"></path>
                </g>
                <g>
                    <g>
                        <path fill="#FFFFFF"
                            d="M535.6,427.7c0.2,0.5,0.7,0.9,1.2,0.9c0.7,0,1.3-0.6,1.3-1.3c0-0.4-0.2-0.7-0.4-1l0.1-0.6 c0.5,0.3,0.8,0.9,0.8,1.5c0,1-0.8,1.8-1.8,1.8c-0.6,0-1.2-0.3-1.5-0.8L535.6,427.7z"
                            class="white-fill"></path>
                        <path fill="#FFFFFF"
                            d="M536.8,424.4c0,0.3,0.2,0.5,0.5,0.5c0.3,0,0.5-0.2,0.5-0.5c0-0.3-0.2-0.5-0.5-0.5 C537.1,423.9,536.8,424.1,536.8,424.4z"
                            class="white-fill"></path>
                        <path fill="#FFFFFF"
                            d="M537.1,425.3l-0.1,0.4H536c0,0-0.2,0-0.2,0.2c0,0.2,0.2,0.2,0.2,0.2h1l0,0.3h-1.4c0,0-0.1,0-0.1,0.1 c0,0-0.1,0.1-0.1,0.1l-0.8,1.6c0,0-0.1,0.2,0.1,0.3c0.2,0.1,0.4-0.1,0.4-0.1l0.6-1.2c0,0,0.1-0.1,0.1-0.1c0.1,0,0.1,0,0.1,0 l1.3,0c0,0,0.1,0,0.2-0.1c0.1-0.1,0.1-0.2,0.1-0.2l0.2-1.4c0,0,0-0.3-0.3-0.3C537.2,425.1,537.1,425.3,537.1,425.3z"
                            class="white-fill"></path>
                    </g>
                </g>
            </g>
            <g id="lul-central_940gtotctrd">
                <g>
                    <path fill="#1C3F94"
                        d="M530.7,429.3c1.9,0,3.4,1.5,3.4,3.4c0,1.9-1.5,3.4-3.4,3.4c-1.9,0-3.4-1.5-3.4-3.4 C527.3,430.8,528.8,429.3,530.7,429.3z"
                        class="blue-fill"></path>
                    <path fill="#FFFFFF"
                        d="M530.7,435.8c-1.7,0-3.1-1.4-3.1-3.1c0-1.7,1.4-3.1,3.1-3.1c1.7,0,3.1,1.4,3.1,3.1 C533.8,434.4,532.4,435.8,530.7,435.8L530.7,435.8z"
                        class="white-fill"></path>
                </g>
                <g>
                    <g>
                        <path fill="#1C3F94"
                            d="M529.6,433.7c0.2,0.5,0.7,0.9,1.2,0.9c0.7,0,1.3-0.6,1.3-1.3c0-0.4-0.2-0.7-0.4-1l0.1-0.6 c0.5,0.3,0.8,0.9,0.8,1.5c0,1-0.8,1.8-1.8,1.8c-0.6,0-1.2-0.3-1.5-0.8L529.6,433.7z"
                            class="blue-fill"></path>
                        <path fill="#1C3F94"
                            d="M530.8,430.5c0,0.3,0.2,0.5,0.5,0.5c0.3,0,0.5-0.2,0.5-0.5c0-0.3-0.2-0.5-0.5-0.5 C531,430,530.8,430.2,530.8,430.5z"
                            class="blue-fill"></path>
                        <path fill="#1C3F94"
                            d="M531.1,431.4l-0.1,0.4h-1.1c0,0-0.2,0-0.2,0.2c0,0.2,0.2,0.2,0.2,0.2h1l0,0.3h-1.4c0,0-0.1,0-0.1,0.1 c0,0-0.1,0.1-0.1,0.1l-0.8,1.6c0,0-0.1,0.2,0.1,0.3c0.2,0.1,0.4-0.1,0.4-0.1l0.6-1.2c0,0,0.1-0.1,0.1-0.1c0.1,0,0.1,0,0.1,0 h1.3c0,0,0.1,0,0.2-0.1c0.1-0.1,0.1-0.2,0.1-0.2l0.2-1.4c0,0,0-0.3-0.3-0.3C531.1,431.1,531.1,431.4,531.1,431.4z"
                            class="blue-fill"></path>
                    </g>
                </g>
            </g>
        </g>
        <g id="IC_FAR">
            <rect x="590" y="395.3" transform="matrix(0.7071 -0.7071 0.7071 0.7071 -105.9138 538.2193)" width="13.5" height="3.4"></rect>
            <rect x="589.8" y="396.4" transform="matrix(0.7071 -0.7071 0.7071 0.7071 -105.9077 538.2217)" fill="#FFFFFF" width="13.9" height="1.1" class="white-fill"></rect>
        </g>
        <g id="IC_FAR">
            <g>
                <path fill="#1C3F94"
                    d="M600,389.8c2,0,3.6,1.6,3.6,3.6c0,2-1.6,3.6-3.6,3.6c-2,0-3.6-1.6-3.6-3.6 C596.5,391.4,598.1,389.8,600,389.8z"
                    class="blue-fill"></path>
                <path fill="#FFFFFF"
                    d="M600,396.6c-1.8,0-3.2-1.4-3.2-3.2c0-1.8,1.4-3.2,3.2-3.2c1.8,0,3.2,1.4,3.2,3.2 C603.3,395.2,601.8,396.6,600,396.6L600,396.6z"
                    class="white-fill"></path>
            </g>
            <g>
                <g>
                    <path fill="#1C3F94"
                        d="M598.8,394.5c0.2,0.6,0.7,1,1.3,1c0.8,0,1.4-0.6,1.4-1.4c0-0.4-0.2-0.8-0.4-1l0.1-0.6 c0.5,0.3,0.9,0.9,0.9,1.6c0,1-0.8,1.9-1.9,1.9c-0.7,0-1.3-0.4-1.6-0.9L598.8,394.5z"
                        class="blue-fill"></path>
                    <path fill="#1C3F94"
                        d="M600.1,391c0,0.3,0.2,0.5,0.5,0.5c0.3,0,0.5-0.2,0.5-0.5c0-0.3-0.2-0.5-0.5-0.5 C600.3,390.5,600.1,390.7,600.1,391z"
                        class="blue-fill"></path>
                    <path fill="#1C3F94"
                        d="M600.4,392l-0.1,0.4h-1.1c0,0-0.2,0-0.2,0.3c0,0.2,0.2,0.3,0.2,0.3h1.1l0,0.4h-1.5c0,0-0.1,0-0.2,0.1 c0,0-0.1,0.1-0.1,0.1l-0.8,1.6c0,0-0.1,0.2,0.1,0.3c0.2,0.1,0.4-0.1,0.4-0.1l0.6-1.3c0,0,0.1-0.1,0.1-0.1c0.1,0,0.1,0,0.1,0 l1.3,0c0,0,0.1,0,0.3-0.1c0.1-0.1,0.1-0.2,0.1-0.2l0.2-1.4c0,0,0-0.3-0.3-0.3C600.5,391.7,600.4,392,600.4,392z"
                        class="blue-fill"></path>
                </g>
            </g>
        </g>
        <g id="IC_FAR">
                <g>
                    <path fill="#1C3F94"
                        d="M592.7,396.8c2,0,3.6,1.6,3.6,3.6c0,2-1.6,3.6-3.6,3.6c-2,0-3.6-1.6-3.6-3.6 C589.1,398.4,590.7,396.8,592.7,396.8z"
                        class="blue-fill"></path>
                </g>
                <g>
                    <g>
                        <path fill="#FFFFFF"
                            d="M591.5,401.4c0.2,0.6,0.7,1,1.3,1c0.8,0,1.4-0.6,1.4-1.4c0-0.4-0.2-0.8-0.4-1l0.1-0.6 c0.5,0.3,0.9,0.9,0.9,1.6c0,1-0.8,1.9-1.9,1.9c-0.7,0-1.3-0.4-1.6-0.9L591.5,401.4z"
                            class="white-fill"></path>
                        <circle fill="#FFFFFF" cx="593.3" cy="398" r="0.5" class="white-fill"></circle>
                        <path fill="#FFFFFF"
                            d="M593.1,399l-0.1,0.4h-1.1c0,0-0.2,0-0.2,0.3c0,0.2,0.2,0.3,0.2,0.3h1.1l-0.1,0.4h-1.4 c0,0-0.1,0-0.2,0.1c0,0-0.1,0.1-0.1,0.1l-0.8,1.6c0,0-0.1,0.2,0.1,0.3c0.2,0.1,0.4-0.1,0.4-0.1l0.6-1.3c0,0,0.1-0.1,0.1-0.1 c0.1,0,0.1,0,0.1,0l1.3,0c0,0,0.1,0,0.3-0.1c0.1-0.1,0.1-0.2,0.1-0.2l0.2-1.4c0,0,0-0.3-0.3-0.3 C593.1,398.7,593.1,399,593.1,399z"
                            class="white-fill"></path>
                    </g>
                </g>
            </g>
        <g id="IC_LST">
            <g id="lul-central_lul-circle_lul-hammersmith-city_lul-metropolitan_940gzzlulvt">
                <g>
                    <rect x="644.1" y="400.2" width="3.4" height="20.8"></rect>
                </g>
                <g>
                    <path fill="#FFFFFF" d="M645.8,425.9c-1.6,0-3-1.3-3-3c0-1.6,1.3-3,3-3c1.6,0,3,1.3,3,3C648.8,424.6,647.5,425.9,645.8,425.9z " class="white-fill"></path>
                    <path d="M645.8,426.5c-2,0-3.6-1.6-3.6-3.6c0-2,1.6-3.6,3.6-3.6c2,0,3.6,1.6,3.6,3.6C649.4,424.9,647.8,426.5,645.8,426.5z M643.5,422.9c0,1.3,1.1,2.4,2.4,2.4c1.3,0,2.4-1.1,2.4-2.4c0-1.3-1.1-2.4-2.4-2.4C644.5,420.5,643.5,421.6,643.5,422.9z"></path>
                </g>
                <rect x="645.3" y="398.8" fill="#FFFFFF" width="1.1" height="22.4" class="white-fill"></rect>
                <polygon fill="#FFFFFF" points="638.6,460.5 637.8,461.3 632.9,456.1 633.7,455.3 " class="white-fill"></polygon>
            </g>
            <g id="lul-circle_lul-hammersmith-city_lul-metropolitan_940gzzlumgt_northern_940gmgt_00000156588200340893060420000000244149120827571126_">
                <g>
                    <rect x="622.2" y="413.8" transform="matrix(0.7071 -0.7071 0.7071 0.7071 -109.0685 567.6752)" width="17.1" height="3.4"></rect>
                </g>
            </g>
            <g>
                <rect x="642.2" y="392" transform="matrix(0.7071 -0.7071 0.7071 0.7071 -87.2055 576.8234)" width="21.1"
                    height="3.4"></rect>
            </g>
            <g id="elizabeth_910glivst_00000063597325529369761170000012875433193416412062_"
               >
                <rect x="644.2" y="392.2" transform="matrix(0.707 -0.7072 0.7072 0.707 -86.2335 577.3174)"
                    fill="#FFFFFF" width="18.9" height="1.1" class="white-fill"></rect>
            </g>
            <g>
                <rect x="632.9" y="403.3" transform="matrix(0.7071 -0.7071 0.7071 0.7071 -98.4916 572.1483)"
                    width="17.1" height="3.4"></rect>
            </g>
            <g id="lul-northern_940gzzlumgt_elizabeth_910glivst">
                <rect x="634.9" y="403.5" transform="matrix(0.707 -0.7072 0.7072 0.707 -97.5218 572.6423)"
                    fill="#FFFFFF" width="14.9" height="1.1" class="white-fill"></rect>
            </g>
            <g id="railo-overground_910glivst_elizabeth_910glivst_00000011006098683345462890000000146479823310626230_"
               >
                <g>
                    <path fill="#1C3F94"
                        d="M660,383c1.9,0,3.4,1.5,3.4,3.4c0,1.9-1.5,3.4-3.4,3.4c-1.9,0-3.4-1.5-3.4-3.4 C656.6,384.5,658.1,383,660,383z"
                        class="blue-fill"></path>
                    <path fill="#FFFFFF"
                        d="M660,389.5c-1.7,0-3.1-1.4-3.1-3.1c0-1.7,1.4-3.1,3.1-3.1c1.7,0,3.1,1.4,3.1,3.1 C663,388.1,661.7,389.5,660,389.5L660,389.5z"
                        class="white-fill"></path>
                </g>
                <g>
                    <g>
                        <path fill="#1C3F94"
                            d="M658.8,387.4c0.2,0.5,0.7,0.9,1.2,0.9c0.7,0,1.3-0.6,1.3-1.3c0-0.4-0.2-0.7-0.4-1l0.1-0.6 c0.5,0.3,0.8,0.9,0.8,1.5c0,1-0.8,1.8-1.8,1.8c-0.6,0-1.2-0.3-1.5-0.8L658.8,387.4z"
                            class="blue-fill"></path>
                        <path fill="#1C3F94"
                            d="M660,384.2c0,0.3,0.2,0.5,0.5,0.5c0.3,0,0.5-0.2,0.5-0.5c0-0.3-0.2-0.5-0.5-0.5 C660.3,383.7,660,383.9,660,384.2z"
                            class="blue-fill"></path>
                        <path fill="#1C3F94"
                            d="M660.3,385.1l-0.1,0.4h-1.1c0,0-0.2,0-0.2,0.2c0,0.2,0.2,0.2,0.2,0.2h1l0,0.3h-1.4c0,0-0.1,0-0.1,0.1 c0,0-0.1,0.1-0.1,0.1l-0.8,1.6c0,0-0.1,0.2,0.1,0.3c0.2,0.1,0.4-0.1,0.4-0.1l0.6-1.2c0,0,0.1-0.1,0.1-0.1c0.1,0,0.1,0,0.1,0 l1.3,0c0,0,0.1,0,0.2-0.1c0.1-0.1,0.1-0.2,0.1-0.2l0.2-1.4c0,0,0-0.3-0.3-0.3C660.4,384.8,660.3,385.1,660.3,385.1z"
                            class="blue-fill"></path>
                    </g>
                </g>
            </g>
            <g id="lul-circle_lul-hammersmith-city_lul-metropolitan_lul-northern_940gzzlumgt_northern_940glivstll">
                <rect x="624.3" y="414" transform="matrix(0.707 -0.7072 0.7072 0.707 -108.1008 568.1691)" fill="#FFFFFF"
                    width="14.9" height="1.1" class="white-fill"></rect>
            </g>
            <g id="northern_940glivstll">
                <g>
                    <path fill="#1C3F94"
                        d="M636.8,406.2c1.9,0,3.4,1.5,3.4,3.4c0,1.9-1.5,3.4-3.4,3.4c-1.9,0-3.4-1.5-3.4-3.4 C633.4,407.7,634.9,406.2,636.8,406.2z"
                        class="blue-fill"></path>
                    <path fill="#FFFFFF"
                        d="M636.8,412.7c-1.7,0-3.1-1.4-3.1-3.1c0-1.7,1.4-3.1,3.1-3.1c1.7,0,3.1,1.4,3.1,3.1 C639.9,411.3,638.5,412.7,636.8,412.7L636.8,412.7z"
                        class="white-fill"></path>
                </g>
                <g>
                    <g>
                        <path fill="#1C3F94"
                            d="M635.6,410.6c0.2,0.5,0.7,0.9,1.2,0.9c0.7,0,1.3-0.6,1.3-1.3c0-0.4-0.2-0.7-0.4-1l0.1-0.6 c0.5,0.3,0.8,0.9,0.8,1.5c0,1-0.8,1.8-1.8,1.8c-0.6,0-1.2-0.3-1.5-0.8L635.6,410.6z"
                            class="blue-fill"></path>
                        <path fill="#1C3F94"
                            d="M636.9,407.3c0,0.3,0.2,0.5,0.5,0.5c0.3,0,0.5-0.2,0.5-0.5c0-0.3-0.2-0.5-0.5-0.5 C637.1,406.8,636.9,407.1,636.9,407.3z"
                            class="blue-fill"></path>
                        <path fill="#1C3F94"
                            d="M637.1,408.2l-0.1,0.4H636c0,0-0.2,0-0.2,0.2c0,0.2,0.2,0.2,0.2,0.2h1l0,0.3h-1.4c0,0-0.1,0-0.1,0.1 c0,0-0.1,0.1-0.1,0.1l-0.8,1.6c0,0-0.1,0.2,0.1,0.3c0.2,0.1,0.4-0.1,0.4-0.1l0.6-1.2c0,0,0.1-0.1,0.1-0.1c0.1,0,0.1,0,0.1,0 l1.3,0c0,0,0.1,0,0.2-0.1c0.1-0.1,0.1-0.2,0.1-0.2l0.2-1.4c0,0,0-0.3-0.3-0.3C637.2,408,637.1,408.2,637.1,408.2z"
                            class="blue-fill"></path>
                    </g>
                </g>
            </g>
            <g id="IC_LST">
                <g>
                    <path fill="#1C3F94"
                        d="M645.9,397c2,0,3.6,1.6,3.6,3.6c0,2-1.6,3.6-3.6,3.6c-2,0-3.6-1.6-3.6-3.6 C642.3,398.6,643.9,397,645.9,397z"
                        class="blue-fill"></path>
                </g>
                <g>
                    <g>
                        <path fill="#FFFFFF"
                            d="M644.7,401.6c0.2,0.6,0.7,1,1.3,1c0.8,0,1.4-0.6,1.4-1.4c0-0.4-0.2-0.8-0.4-1l0.1-0.6 c0.5,0.3,0.9,0.9,0.9,1.6c0,1-0.8,1.9-1.9,1.9c-0.7,0-1.3-0.4-1.6-0.9L644.7,401.6z"
                            class="white-fill"></path>
                        <circle fill="#FFFFFF" cx="646.5" cy="398.2" r="0.5" class="white-fill"></circle>
                        <path fill="#FFFFFF"
                            d="M646.2,399.2l-0.1,0.4H645c0,0-0.2,0-0.2,0.3c0,0.2,0.2,0.3,0.2,0.3h1.1l-0.1,0.4h-1.4 c0,0-0.1,0-0.2,0.1c0,0-0.1,0.1-0.1,0.1l-0.8,1.6c0,0-0.1,0.2,0.1,0.3c0.2,0.1,0.4-0.1,0.4-0.1l0.6-1.3c0,0,0.1-0.1,0.1-0.1 c0.1,0,0.1,0,0.1,0l1.3,0c0,0,0.1,0,0.3-0.1c0.1-0.1,0.1-0.2,0.1-0.2l0.2-1.4c0,0,0-0.3-0.3-0.3 C646.3,398.9,646.2,399.2,646.2,399.2z"
                            class="white-fill"></path>
                    </g>
                </g>
            </g>
            <g id="IC_LST">
                <g>
                    <path fill="#1C3F94"
                        d="M626.5,416.2c2,0,3.6,1.6,3.6,3.6c0,2-1.6,3.6-3.6,3.6c-2,0-3.6-1.6-3.6-3.6 C622.9,417.8,624.5,416.2,626.5,416.2z"
                        class="blue-fill"></path>
                </g>
                <g>
                    <g>
                        <path fill="#FFFFFF"
                            d="M625.3,420.8c0.2,0.6,0.7,1,1.3,1c0.8,0,1.4-0.6,1.4-1.4c0-0.4-0.2-0.8-0.4-1l0.1-0.6 c0.5,0.3,0.9,0.9,0.9,1.6c0,1-0.8,1.9-1.9,1.9c-0.7,0-1.3-0.4-1.6-0.9L625.3,420.8z"
                            class="white-fill"></path>
                        <circle fill="#FFFFFF" cx="627.1" cy="417.4" r="0.5" class="white-fill"></circle>
                        <path fill="#FFFFFF"
                            d="M626.8,418.4l-0.1,0.4h-1.1c0,0-0.2,0-0.2,0.3c0,0.2,0.2,0.3,0.2,0.3h1.1l-0.1,0.4h-1.4 c0,0-0.1,0-0.2,0.1c0,0-0.1,0.1-0.1,0.1l-0.8,1.6c0,0-0.1,0.2,0.1,0.3c0.2,0.1,0.4-0.1,0.4-0.1l0.6-1.3c0,0,0.1-0.1,0.1-0.1 c0.1,0,0.1,0,0.1,0l1.3,0c0,0,0.1,0,0.3-0.1c0.1-0.1,0.1-0.2,0.1-0.2l0.2-1.4c0,0,0-0.3-0.3-0.3 C626.9,418.1,626.8,418.4,626.8,418.4z"
                            class="white-fill"></path>
                    </g>
                </g>
            </g>
        </g>
        <g id="IC_WCL">
            <g>
                <rect x="715.5" y="407.2" transform="matrix(0.7071 -0.7071 0.7071 0.7071 -83.174 628.5897)" width="3.4" height="15.1"></rect>
            </g>
            <g id="elizabeth_WCL">
                <rect x="716.8" y="407.3" transform="matrix(0.707 -0.7072 0.7072 0.707 -83.2002 628.8339)"
                    fill="#FFFFFF" width="1.1" height="15.1" class="white-fill"></rect>
                <g id="WCL">
                    <g>
                        <path fill="#1C3F94"
                            d="M712.2,405.9c1.9,0,3.4,1.5,3.4,3.4c0,1.9-1.5,3.4-3.4,3.4c-1.9,0-3.4-1.5-3.4-3.4 C708.7,407.4,710.3,405.9,712.2,405.9z"
                            class="blue-fill"></path>
                    </g>
                    <g>
                        <g>
                            <path fill="#FFFFFF"
                                d="M711,410.3c0.2,0.5,0.7,0.9,1.2,0.9c0.7,0,1.3-0.6,1.3-1.3c0-0.4-0.2-0.7-0.4-1l0.1-0.6 c0.5,0.3,0.8,0.9,0.8,1.5c0,1-0.8,1.8-1.8,1.8c-0.6,0-1.2-0.3-1.5-0.9L711,410.3z"
                                class="white-fill"></path>
                            <path fill="#FFFFFF"
                                d="M712.2,407.1c0,0.3,0.2,0.5,0.5,0.5c0.3,0,0.5-0.2,0.5-0.5c0-0.3-0.2-0.5-0.5-0.5 C712.4,406.6,712.2,406.8,712.2,407.1z"
                                class="white-fill"></path>
                            <path fill="#FFFFFF"
                                d="M712.5,408l-0.1,0.4h-1.1c0,0-0.2,0-0.2,0.2c0,0.2,0.2,0.2,0.2,0.2h1l0,0.3h-1.4c0,0-0.1,0-0.1,0.1 c0,0-0.1,0.1-0.1,0.1l-0.8,1.6c0,0-0.1,0.2,0.1,0.3c0.2,0.1,0.4-0.1,0.4-0.1l0.6-1.2c0,0,0.1-0.1,0.1-0.1c0.1,0,0.1,0,0.1,0 l1.3,0c0,0,0.1,0,0.2-0.1c0.1-0.1,0.1-0.2,0.1-0.2l0.2-1.4c0,0,0-0.3-0.3-0.3C712.6,407.7,712.5,408,712.5,408z"
                                class="white-fill"></path>
                        </g>
                    </g>
                </g>
            </g>
            <g id="raillo-overground_910gwchapel_lul-hammersmith-city_940gzzluwpl_lul-district_940gzzluwpl">
                <g>
                    <path fill="#1C3F94"
                        d="M722.8,416.6c1.9,0,3.4,1.5,3.4,3.4c0,1.9-1.5,3.4-3.4,3.4c-1.9,0-3.4-1.5-3.4-3.4 C719.4,418.1,721,416.6,722.8,416.6z"
                        class="blue-fill"></path>
                    <path fill="#FFFFFF"
                        d="M722.8,423.1c-1.7,0-3.1-1.4-3.1-3.1c0-1.7,1.4-3.1,3.1-3.1c1.7,0,3.1,1.4,3.1,3.1 C725.9,421.7,724.5,423.1,722.8,423.1L722.8,423.1z"
                        class="white-fill"></path>
                </g>
                <g>
                    <g>
                        <path fill="#1C3F94"
                            d="M721.7,421c0.2,0.5,0.7,0.9,1.2,0.9c0.7,0,1.3-0.6,1.3-1.3c0-0.4-0.2-0.7-0.4-1l0.1-0.6 c0.5,0.3,0.8,0.9,0.8,1.5c0,1-0.8,1.8-1.8,1.8c-0.6,0-1.2-0.3-1.5-0.8L721.7,421z"
                            class="blue-fill"></path>
                        <path fill="#1C3F94"
                            d="M722.9,417.8c0,0.3,0.2,0.5,0.5,0.5c0.3,0,0.5-0.2,0.5-0.5c0-0.3-0.2-0.5-0.5-0.5 C723.1,417.3,722.9,417.5,722.9,417.8z"
                            class="blue-fill"></path>
                        <path fill="#1C3F94"
                            d="M723.2,418.6l-0.1,0.4H722c0,0-0.2,0-0.2,0.2c0,0.2,0.2,0.2,0.2,0.2h1l0,0.3h-1.4c0,0-0.1,0-0.1,0.1 c0,0-0.1,0.1-0.1,0.1l-0.8,1.6c0,0-0.1,0.2,0.1,0.3c0.2,0.1,0.4-0.1,0.4-0.1l0.6-1.2c0,0,0.1-0.1,0.1-0.1c0.1,0,0.1,0,0.1,0 l1.3,0c0,0,0.1,0,0.2-0.1c0.1-0.1,0.1-0.2,0.1-0.2l0.2-1.4c0,0,0-0.3-0.3-0.3C723.2,418.4,723.2,418.6,723.2,418.6z"
                            class="blue-fill"></path>
                    </g>
                </g>
            </g>
        </g>
        <g id="IC_CWF">
            <g>
                <path fill="#1C3F94"
                    d="M804.8,491.3c1.9,0,3.4,1.5,3.4,3.4c0,1.9-1.5,3.4-3.4,3.4c-1.9,0-3.4-1.5-3.4-3.4 C801.4,492.8,802.9,491.3,804.8,491.3z"
                    class="blue-fill"></path>
            </g>
            <g>
                <g>
                    <path fill="#FFFFFF"
                        d="M803.7,495.7c0.2,0.5,0.7,0.9,1.2,0.9c0.7,0,1.3-0.6,1.3-1.3c0-0.4-0.2-0.7-0.4-1l0.1-0.6 c0.5,0.3,0.8,0.9,0.8,1.5c0,1-0.8,1.8-1.8,1.8c-0.6,0-1.2-0.3-1.5-0.8L803.7,495.7z"
                        class="white-fill"></path>
                    <path fill="#FFFFFF"
                        d="M804.9,492.5c0,0.3,0.2,0.5,0.5,0.5c0.3,0,0.5-0.2,0.5-0.5c0-0.3-0.2-0.5-0.5-0.5 C805.1,492,804.9,492.2,804.9,492.5z"
                        class="white-fill"></path>
                    <path fill="#FFFFFF"
                        d="M805.1,493.4l-0.1,0.4H804c0,0-0.2,0-0.2,0.2c0,0.2,0.2,0.2,0.2,0.2h1l0,0.3h-1.4c0,0-0.1,0-0.1,0.1 c0,0-0.1,0.1-0.1,0.1l-0.8,1.6c0,0-0.1,0.2,0.1,0.3c0.2,0.1,0.4-0.1,0.4-0.1l0.6-1.2c0,0,0.1-0.1,0.1-0.1c0.1,0,0.1,0,0.1,0 l1.3,0c0,0,0.1,0,0.2-0.1c0.1-0.1,0.1-0.2,0.1-0.2l0.2-1.4c0,0,0-0.3-0.3-0.3C805.2,493.1,805.1,493.4,805.1,493.4z"
                        class="white-fill"></path>
                </g>
            </g>
        </g>
        <g id="IC_CUH">
            <g id="elizabeth_910gcstnhsxr_dlr-dlr_940gzzdlcgt">
                <rect x="921.9" y="491.6" transform="matrix(0.7071 -0.7071 0.7071 0.7071 -76.074 802.9266)" width="18.6"
                    height="3.4"></rect>
                <rect x="921.8" y="493.1" transform="matrix(0.7064 -0.7078 0.7078 0.7064 -76.1562 803.7858)"
                    fill="#FFFFFF" width="17.9" height="1.1" class="white-fill"></rect>
            </g>
            <g id="elizabeth_910gcstnhsxr">
                <g>
                    <path fill="#1C3F94"
                        d="M924.7,496.4c1.9,0,3.4,1.5,3.4,3.4c0,1.9-1.5,3.4-3.4,3.4c-1.9,0-3.4-1.5-3.4-3.4 C921.3,497.9,922.8,496.4,924.7,496.4z"
                        class="blue-fill"></path>
                </g>
                <g>
                    <g>
                        <path fill="#FFFFFF"
                            d="M923.6,500.8c0.2,0.5,0.7,0.9,1.2,0.9c0.7,0,1.3-0.6,1.3-1.3c0-0.4-0.2-0.7-0.4-1l0.1-0.6 c0.5,0.3,0.8,0.9,0.8,1.5c0,1-0.8,1.8-1.8,1.8c-0.6,0-1.2-0.3-1.5-0.9L923.6,500.8z"
                            class="white-fill"></path>
                        <path fill="#FFFFFF"
                            d="M924.8,497.5c0,0.3,0.2,0.5,0.5,0.5c0.3,0,0.5-0.2,0.5-0.5c0-0.3-0.2-0.5-0.5-0.5 C925,497,924.8,497.3,924.8,497.5z"
                            class="white-fill"></path>
                        <path fill="#FFFFFF"
                            d="M925.1,498.4l-0.1,0.4h-1.1c0,0-0.2,0-0.2,0.2c0,0.2,0.2,0.2,0.2,0.2h1l0,0.3h-1.4c0,0-0.1,0-0.1,0.1 c0,0-0.1,0.1-0.1,0.1l-0.8,1.6c0,0-0.1,0.2,0.1,0.3c0.2,0.1,0.4-0.1,0.4-0.1l0.6-1.2c0,0,0.1-0.1,0.1-0.1c0.1,0,0.1,0,0.1,0 l1.3,0c0,0,0.1,0,0.2-0.1c0.1-0.1,0.1-0.2,0.1-0.2l0.2-1.4c0,0,0-0.3-0.3-0.3C925.1,498.2,925.1,498.4,925.1,498.4z"
                            class="white-fill"></path>
                    </g>
                </g>
            </g>
            <g id="dlr-dlr_940gzzdlcgt_00000055698157266845264110000014843902677527235255_">
                <g>
                    <path fill="#1C3F94"
                        d="M937.5,483.7c1.9,0,3.4,1.5,3.4,3.4c0,1.9-1.5,3.4-3.4,3.4c-1.9,0-3.4-1.5-3.4-3.4 C934,485.2,935.6,483.7,937.5,483.7z"
                        class="blue-fill"></path>
                </g>
                <g>
                    <g>
                        <path fill="#FFFFFF"
                            d="M936.3,488.1c0.2,0.5,0.7,0.9,1.2,0.9c0.7,0,1.3-0.6,1.3-1.3c0-0.4-0.2-0.7-0.4-1l0.1-0.6 c0.5,0.3,0.8,0.9,0.8,1.5c0,1-0.8,1.8-1.8,1.8c-0.6,0-1.2-0.3-1.5-0.8L936.3,488.1z"
                            class="white-fill"></path>
                        <path fill="#FFFFFF"
                            d="M937.5,484.8c0,0.3,0.2,0.5,0.5,0.5c0.3,0,0.5-0.2,0.5-0.5c0-0.3-0.2-0.5-0.5-0.5 C937.7,484.3,937.5,484.5,937.5,484.8z"
                            class="white-fill"></path>
                        <path fill="#FFFFFF"
                            d="M937.8,485.7l-0.1,0.4h-1.1c0,0-0.2,0-0.2,0.2c0,0.2,0.2,0.2,0.2,0.2h1l0,0.3h-1.4c0,0-0.1,0-0.1,0 c0,0-0.1,0.1-0.1,0.1l-0.8,1.6c0,0-0.1,0.2,0.1,0.3c0.2,0.1,0.4-0.1,0.4-0.1l0.6-1.2c0,0,0.1-0.1,0.1-0.1c0.1,0,0.1,0,0.1,0 l1.3,0c0,0,0.1,0,0.2-0.1c0.1-0.1,0.1-0.2,0.1-0.2l0.2-1.4c0,0,0-0.3-0.3-0.3C937.9,485.5,937.8,485.7,937.8,485.7z"
                            class="white-fill"></path>
                    </g>
                </g>
            </g>
        </g>
        <g id="IC_WOO">
            <g>
                <path fill="#1C3F94"
                    d="M971.6,581.7c1.9,0,3.4,1.5,3.4,3.4c0,1.9-1.5,3.4-3.4,3.4c-1.9,0-3.4-1.5-3.4-3.4 C968.2,583.2,969.7,581.7,971.6,581.7z"
                    class="blue-fill"></path>
            </g>
            <g>
                <g>
                    <path fill="#FFFFFF"
                        d="M970.4,586.1c0.2,0.5,0.7,0.9,1.2,0.9c0.7,0,1.3-0.6,1.3-1.3c0-0.4-0.2-0.7-0.4-1l0.1-0.6 c0.5,0.3,0.8,0.9,0.8,1.5c0,1-0.8,1.8-1.8,1.8c-0.6,0-1.2-0.3-1.5-0.9L970.4,586.1z"
                        class="white-fill"></path>
                    <path fill="#FFFFFF"
                        d="M971.6,582.8c0,0.3,0.2,0.5,0.5,0.5c0.3,0,0.5-0.2,0.5-0.5c0-0.3-0.2-0.5-0.5-0.5 C971.8,582.3,971.6,582.5,971.6,582.8z"
                        class="white-fill"></path>
                    <path fill="#FFFFFF"
                        d="M971.9,583.7l-0.1,0.4h-1.1c0,0-0.2,0-0.2,0.2c0,0.2,0.2,0.2,0.2,0.2h1l0,0.3h-1.4c0,0-0.1,0-0.1,0.1 c0,0-0.1,0.1-0.1,0.1l-0.8,1.6c0,0-0.1,0.2,0.1,0.3c0.2,0.1,0.4-0.1,0.4-0.1l0.6-1.2c0,0,0-0.1,0.1-0.1c0.1,0,0.1,0,0.1,0 l1.3,0c0,0,0.1,0,0.2-0.1c0.1-0.1,0.1-0.2,0.1-0.2l0.2-1.4c0,0,0-0.3-0.3-0.3C972,583.5,971.9,583.7,971.9,583.7z"
                        class="white-fill"></path>
                </g>
            </g>
        </g>
        <g id="IC_ABW">
            <g>
                <path fill="#1C3F94"
                    d="M971.6,594.2c1.9,0,3.4,1.5,3.4,3.4c0,1.9-1.5,3.4-3.4,3.4c-1.9,0-3.4-1.5-3.4-3.4 C968.2,595.7,969.7,594.2,971.6,594.2z"
                    class="blue-fill"></path>
                <path fill="#FFFFFF"
                    d="M971.6,600.7c-1.7,0-3.1-1.4-3.1-3.1s1.4-3.1,3.1-3.1c1.7,0,3.1,1.4,3.1,3.1S973.2,600.7,971.6,600.7 L971.6,600.7z"
                    class="white-fill"></path>
            </g>
            <g>
                <path fill="#1C3F94" d="M970.4,598.6c0.2,0.5,0.7,0.9,1.2,0.9c0.7,0,1.3-0.6,1.3-1.3c0-0.4-0.2-0.7-0.4-1l0.1-0.6 c0.5,0.3,0.8,0.9,0.8,1.5c0,1-0.8,1.8-1.8,1.8c-0.6,0-1.2-0.3-1.5-0.8L970.4,598.6z" class="blue-fill"></path>
                <circle fill="#1C3F94" cx="972.1" cy="595.3" r="0.5" class="blue-fill"></circle>
                <path fill="#1C3F94" d="M971.9,596.2l-0.1,0.4h-1.1c0,0-0.2,0-0.2,0.2c0,0.2,0.2,0.2,0.2,0.2h1l0,0.3h-1.4c0,0-0.1,0-0.1,0.1 c0,0-0.1,0.1-0.1,0.1l-0.8,1.6c0,0-0.1,0.2,0.1,0.3c0.2,0.1,0.4-0.1,0.4-0.1l0.6-1.2c0,0,0.1-0.1,0.1-0.1c0.1,0,0.1,0,0.1,0 l1.3,0c0,0,0.1,0,0.2-0.1c0.1-0.1,0.1-0.2,0.1-0.2l0.2-1.4c0,0,0-0.3-0.3-0.3C972,596,971.9,596.2,971.9,596.2z" class="blue-fill"></path>
            </g>
        </g>
    </g>
</svg>